<svg width="255" height="58" viewBox="0 0 255 58" fill="none" xmlns="http://www.w3.org/2000/svg">
<path d="M5.61719 13H4.35156V4.90625C4.35156 4.59896 4.35156 4.33594 4.35156 4.11719C4.35677 3.89323 4.36198 3.6901 4.36719 3.50781C4.3776 3.32031 4.39062 3.13021 4.40625 2.9375C4.24479 3.10417 4.09375 3.2474 3.95312 3.36719C3.8125 3.48177 3.63802 3.625 3.42969 3.79688L2.125 4.84375L1.44531 3.96094L4.53906 1.57812H5.61719V13ZM17.4297 13H9.94531V11.9141L13 8.8125C13.5677 8.23958 14.0443 7.72917 14.4297 7.28125C14.8203 6.83333 15.1172 6.39323 15.3203 5.96094C15.5234 5.52344 15.625 5.04427 15.625 4.52344C15.625 3.8776 15.4323 3.38542 15.0469 3.04688C14.6667 2.70312 14.1641 2.53125 13.5391 2.53125C12.9922 2.53125 12.5078 2.625 12.0859 2.8125C11.6641 3 11.2318 3.26562 10.7891 3.60938L10.0938 2.73438C10.3958 2.47917 10.724 2.2526 11.0781 2.05469C11.4375 1.85677 11.8203 1.70052 12.2266 1.58594C12.638 1.47135 13.0755 1.41406 13.5391 1.41406C14.2422 1.41406 14.849 1.53646 15.3594 1.78125C15.8698 2.02604 16.263 2.375 16.5391 2.82812C16.8203 3.28125 16.9609 3.82031 16.9609 4.44531C16.9609 5.04948 16.8411 5.61198 16.6016 6.13281C16.362 6.64844 16.026 7.16146 15.5938 7.67188C15.1615 8.17708 14.6562 8.71354 14.0781 9.28125L11.5938 11.7578V11.8125H17.4297V13ZM26.1641 4.24219C26.1641 4.7526 26.0651 5.19531 25.8672 5.57031C25.6693 5.94531 25.3932 6.2526 25.0391 6.49219C24.6849 6.72656 24.2682 6.89062 23.7891 6.98438V7.04688C24.6953 7.16146 25.375 7.45312 25.8281 7.92188C26.2865 8.39062 26.5156 9.00521 26.5156 9.76562C26.5156 10.4271 26.3594 11.013 26.0469 11.5234C25.7396 12.0339 25.2656 12.4349 24.625 12.7266C23.9896 13.013 23.1745 13.1562 22.1797 13.1562C21.5755 13.1562 21.0156 13.1068 20.5 13.0078C19.9896 12.9141 19.5 12.7552 19.0312 12.5312V11.3125C19.5052 11.5469 20.0208 11.7318 20.5781 11.8672C21.1354 11.9974 21.6745 12.0625 22.1953 12.0625C23.237 12.0625 23.9896 11.8568 24.4531 11.4453C24.9167 11.0286 25.1484 10.4609 25.1484 9.74219C25.1484 9.2474 25.0182 8.84896 24.7578 8.54688C24.5026 8.23958 24.1328 8.01562 23.6484 7.875C23.1693 7.72917 22.5911 7.65625 21.9141 7.65625H20.7734V6.54688H21.9219C22.5417 6.54688 23.0677 6.45573 23.5 6.27344C23.9323 6.09115 24.2604 5.83594 24.4844 5.50781C24.7135 5.17448 24.8281 4.78125 24.8281 4.32812C24.8281 3.75 24.6354 3.30469 24.25 2.99219C23.8646 2.67448 23.3411 2.51562 22.6797 2.51562C22.2734 2.51562 21.9036 2.55729 21.5703 2.64062C21.237 2.72396 20.9245 2.83854 20.6328 2.98438C20.3411 3.13021 20.0495 3.29948 19.7578 3.49219L19.1016 2.60156C19.5182 2.27865 20.026 2 20.625 1.76562C21.224 1.53125 21.9036 1.41406 22.6641 1.41406C23.8307 1.41406 24.7057 1.67969 25.2891 2.21094C25.8724 2.74219 26.1641 3.41927 26.1641 4.24219ZM30.3203 11.1406L30.4219 11.3203C30.3281 11.7005 30.2083 12.1068 30.0625 12.5391C29.9219 12.9714 29.7656 13.4036 29.5938 13.8359C29.4271 14.2734 29.2578 14.6823 29.0859 15.0625H28.1172C28.2266 14.6458 28.3333 14.2057 28.4375 13.7422C28.5417 13.2839 28.6354 12.8307 28.7188 12.3828C28.8073 11.9297 28.8776 11.5156 28.9297 11.1406H30.3203ZM38.4297 0.84375V4.47656C38.4297 4.6849 38.4245 4.89583 38.4141 5.10938C38.4036 5.31771 38.3854 5.51042 38.3594 5.6875H38.4453C38.6224 5.38542 38.8464 5.13281 39.1172 4.92969C39.3932 4.72135 39.7057 4.5651 40.0547 4.46094C40.4036 4.35156 40.7734 4.29688 41.1641 4.29688C41.8516 4.29688 42.4245 4.40625 42.8828 4.625C43.3464 4.84375 43.6927 5.18229 43.9219 5.64062C44.1562 6.09896 44.2734 6.69271 44.2734 7.42188V13H42.9922V7.50781C42.9922 6.79427 42.8281 6.26042 42.5 5.90625C42.1771 5.55208 41.6797 5.375 41.0078 5.375C40.3724 5.375 39.8646 5.4974 39.4844 5.74219C39.1094 5.98177 38.8385 6.33594 38.6719 6.80469C38.5104 7.27344 38.4297 7.84635 38.4297 8.52344V13H37.1328V0.84375H38.4297ZM50.1484 4.29688C51.1693 4.29688 51.9271 4.52604 52.4219 4.98438C52.9167 5.44271 53.1641 6.17448 53.1641 7.17969V13H52.2188L51.9688 11.7344H51.9062C51.6667 12.0469 51.4167 12.3099 51.1562 12.5234C50.8958 12.7318 50.5938 12.8906 50.25 13C49.9115 13.1042 49.4948 13.1562 49 13.1562C48.4792 13.1562 48.0156 13.0651 47.6094 12.8828C47.2083 12.7005 46.8906 12.4245 46.6562 12.0547C46.4271 11.6849 46.3125 11.2161 46.3125 10.6484C46.3125 9.79427 46.651 9.13802 47.3281 8.67969C48.0052 8.22135 49.0365 7.97135 50.4219 7.92969L51.8984 7.86719V7.34375C51.8984 6.60417 51.7396 6.08594 51.4219 5.78906C51.1042 5.49219 50.6562 5.34375 50.0781 5.34375C49.6302 5.34375 49.2031 5.40885 48.7969 5.53906C48.3906 5.66927 48.0052 5.82292 47.6406 6L47.2422 5.01562C47.6276 4.81771 48.0703 4.64844 48.5703 4.50781C49.0703 4.36719 49.5964 4.29688 50.1484 4.29688ZM51.8828 8.78125L50.5781 8.83594C49.5104 8.8776 48.7578 9.05208 48.3203 9.35938C47.8828 9.66667 47.6641 10.1016 47.6641 10.6641C47.6641 11.1536 47.8125 11.5156 48.1094 11.75C48.4062 11.9844 48.7995 12.1016 49.2891 12.1016C50.0495 12.1016 50.6719 11.8906 51.1562 11.4688C51.6406 11.0469 51.8828 10.4141 51.8828 9.57031V8.78125ZM59.8594 4.28125C60.9271 4.28125 61.7786 4.64844 62.4141 5.38281C63.0495 6.11719 63.3672 7.22135 63.3672 8.69531C63.3672 9.66927 63.2214 10.487 62.9297 11.1484C62.638 11.8099 62.2266 12.3099 61.6953 12.6484C61.1693 12.987 60.5469 13.1562 59.8281 13.1562C59.375 13.1562 58.9766 13.0964 58.6328 12.9766C58.2891 12.8568 57.9948 12.6953 57.75 12.4922C57.5052 12.2891 57.3021 12.0677 57.1406 11.8281H57.0469C57.0625 12.0312 57.0807 12.276 57.1016 12.5625C57.1276 12.849 57.1406 13.099 57.1406 13.3125V16.8281H55.8359V4.4375H56.9062L57.0781 5.70312H57.1406C57.3073 5.44271 57.5104 5.20573 57.75 4.99219C57.9896 4.77344 58.2812 4.60156 58.625 4.47656C58.974 4.34635 59.3854 4.28125 59.8594 4.28125ZM59.6328 5.375C59.0391 5.375 58.5599 5.48958 58.1953 5.71875C57.8359 5.94792 57.5729 6.29167 57.4062 6.75C57.2396 7.20312 57.151 7.77344 57.1406 8.46094V8.71094C57.1406 9.4349 57.2188 10.0469 57.375 10.5469C57.5365 11.0469 57.7995 11.4271 58.1641 11.6875C58.5339 11.9479 59.0286 12.0781 59.6484 12.0781C60.1797 12.0781 60.6224 11.9349 60.9766 11.6484C61.3307 11.362 61.5938 10.9635 61.7656 10.4531C61.9427 9.9375 62.0312 9.34635 62.0312 8.67969C62.0312 7.66927 61.8333 6.86719 61.4375 6.27344C61.0469 5.67448 60.4453 5.375 59.6328 5.375ZM69.6562 4.28125C70.724 4.28125 71.5755 4.64844 72.2109 5.38281C72.8464 6.11719 73.1641 7.22135 73.1641 8.69531C73.1641 9.66927 73.0182 10.487 72.7266 11.1484C72.4349 11.8099 72.0234 12.3099 71.4922 12.6484C70.9661 12.987 70.3438 13.1562 69.625 13.1562C69.1719 13.1562 68.7734 13.0964 68.4297 12.9766C68.0859 12.8568 67.7917 12.6953 67.5469 12.4922C67.3021 12.2891 67.099 12.0677 66.9375 11.8281H66.8438C66.8594 12.0312 66.8776 12.276 66.8984 12.5625C66.9245 12.849 66.9375 13.099 66.9375 13.3125V16.8281H65.6328V4.4375H66.7031L66.875 5.70312H66.9375C67.1042 5.44271 67.3073 5.20573 67.5469 4.99219C67.7865 4.77344 68.0781 4.60156 68.4219 4.47656C68.7708 4.34635 69.1823 4.28125 69.6562 4.28125ZM69.4297 5.375C68.8359 5.375 68.3568 5.48958 67.9922 5.71875C67.6328 5.94792 67.3698 6.29167 67.2031 6.75C67.0365 7.20312 66.9479 7.77344 66.9375 8.46094V8.71094C66.9375 9.4349 67.0156 10.0469 67.1719 10.5469C67.3333 11.0469 67.5964 11.4271 67.9609 11.6875C68.3307 11.9479 68.8255 12.0781 69.4453 12.0781C69.9766 12.0781 70.4193 11.9349 70.7734 11.6484C71.1276 11.362 71.3906 10.9635 71.5625 10.4531C71.7396 9.9375 71.8281 9.34635 71.8281 8.67969C71.8281 7.66927 71.6302 6.86719 71.2344 6.27344C70.8438 5.67448 70.2422 5.375 69.4297 5.375ZM74.0781 4.4375H75.4688L77.3594 9.40625C77.4688 9.69792 77.5703 9.97917 77.6641 10.25C77.7578 10.5156 77.8411 10.7708 77.9141 11.0156C77.987 11.2604 78.0443 11.4974 78.0859 11.7266H78.1406C78.2135 11.4661 78.3177 11.125 78.4531 10.7031C78.5885 10.276 78.7344 9.84115 78.8906 9.39844L80.6797 4.4375H82.0781L78.3516 14.2578C78.1536 14.7839 77.9219 15.2422 77.6562 15.6328C77.3958 16.0234 77.0781 16.3229 76.7031 16.5312C76.3281 16.7448 75.875 16.8516 75.3438 16.8516C75.099 16.8516 74.8828 16.8359 74.6953 16.8047C74.5078 16.7786 74.3464 16.7474 74.2109 16.7109V15.6719C74.3255 15.6979 74.4635 15.7214 74.625 15.7422C74.7917 15.763 74.9635 15.7734 75.1406 15.7734C75.4635 15.7734 75.7422 15.7109 75.9766 15.5859C76.2161 15.4661 76.4219 15.2891 76.5938 15.0547C76.7656 14.8203 76.9141 14.5417 77.0391 14.2188L77.5078 13.0156L74.0781 4.4375ZM93.1406 10.6562C93.1406 11.2031 93.0026 11.6641 92.7266 12.0391C92.4557 12.4089 92.0651 12.6875 91.5547 12.875C91.0495 13.0625 90.4453 13.1562 89.7422 13.1562C89.1432 13.1562 88.625 13.1094 88.1875 13.0156C87.75 12.9219 87.3672 12.7891 87.0391 12.6172V11.4219C87.388 11.5938 87.8047 11.75 88.2891 11.8906C88.7734 12.0312 89.2682 12.1016 89.7734 12.1016C90.513 12.1016 91.0495 11.9818 91.3828 11.7422C91.7161 11.5026 91.8828 11.1771 91.8828 10.7656C91.8828 10.5312 91.8151 10.3255 91.6797 10.1484C91.5495 9.96615 91.3281 9.79167 91.0156 9.625C90.7031 9.45312 90.2708 9.26562 89.7188 9.0625C89.1719 8.85417 88.6979 8.64844 88.2969 8.44531C87.901 8.23698 87.5938 7.98438 87.375 7.6875C87.1615 7.39062 87.0547 7.00521 87.0547 6.53125C87.0547 5.80729 87.3464 5.2526 87.9297 4.86719C88.5182 4.47656 89.2891 4.28125 90.2422 4.28125C90.7578 4.28125 91.2396 4.33333 91.6875 4.4375C92.1406 4.53646 92.5625 4.67188 92.9531 4.84375L92.5156 5.88281C92.1615 5.73177 91.7839 5.60417 91.3828 5.5C90.9818 5.39583 90.5729 5.34375 90.1562 5.34375C89.5573 5.34375 89.0964 5.44271 88.7734 5.64062C88.4557 5.83854 88.2969 6.10938 88.2969 6.45312C88.2969 6.71875 88.3698 6.9375 88.5156 7.10938C88.6667 7.28125 88.9062 7.44271 89.2344 7.59375C89.5625 7.74479 89.9948 7.92188 90.5312 8.125C91.0677 8.32292 91.5312 8.52865 91.9219 8.74219C92.3125 8.95052 92.612 9.20573 92.8203 9.50781C93.0339 9.80469 93.1406 10.1875 93.1406 10.6562ZM97.9922 12.0938C98.2057 12.0938 98.4245 12.0755 98.6484 12.0391C98.8724 12.0026 99.0547 11.9583 99.1953 11.9062V12.9141C99.0443 12.9818 98.8333 13.0391 98.5625 13.0859C98.2969 13.1328 98.0365 13.1562 97.7812 13.1562C97.3281 13.1562 96.9167 13.0781 96.5469 12.9219C96.1771 12.7604 95.8802 12.4896 95.6562 12.1094C95.4375 11.7292 95.3281 11.2031 95.3281 10.5312V5.45312H94.1094V4.82031L95.3359 4.3125L95.8516 2.45312H96.6328V4.4375H99.1406V5.45312H96.6328V10.4922C96.6328 11.0286 96.7552 11.4297 97 11.6953C97.25 11.9609 97.5807 12.0938 97.9922 12.0938ZM104.82 4.28125C104.992 4.28125 105.172 4.29167 105.359 4.3125C105.547 4.32812 105.714 4.35156 105.859 4.38281L105.695 5.58594C105.555 5.54948 105.398 5.52083 105.227 5.5C105.055 5.47917 104.893 5.46875 104.742 5.46875C104.398 5.46875 104.073 5.53906 103.766 5.67969C103.464 5.8151 103.198 6.01302 102.969 6.27344C102.74 6.52865 102.56 6.83854 102.43 7.20312C102.299 7.5625 102.234 7.96354 102.234 8.40625V13H100.93V4.4375H102.008L102.148 6.01562H102.203C102.38 5.69792 102.594 5.40885 102.844 5.14844C103.094 4.88281 103.383 4.67188 103.711 4.51562C104.044 4.35938 104.414 4.28125 104.82 4.28125ZM110.773 4.28125C111.503 4.28125 112.128 4.44271 112.648 4.76562C113.169 5.08854 113.568 5.54167 113.844 6.125C114.12 6.70312 114.258 7.38021 114.258 8.15625V8.96094H108.344C108.359 9.96615 108.609 10.7318 109.094 11.2578C109.578 11.7839 110.26 12.0469 111.141 12.0469C111.682 12.0469 112.161 11.9974 112.578 11.8984C112.995 11.7995 113.427 11.6536 113.875 11.4609V12.6016C113.443 12.7943 113.013 12.9349 112.586 13.0234C112.164 13.112 111.664 13.1562 111.086 13.1562C110.263 13.1562 109.544 12.9896 108.93 12.6562C108.32 12.3177 107.846 11.8229 107.508 11.1719C107.169 10.5208 107 9.72396 107 8.78125C107 7.85938 107.154 7.0625 107.461 6.39062C107.773 5.71354 108.211 5.19271 108.773 4.82812C109.341 4.46354 110.008 4.28125 110.773 4.28125ZM110.758 5.34375C110.065 5.34375 109.513 5.57031 109.102 6.02344C108.69 6.47656 108.445 7.10938 108.367 7.92188H112.898C112.893 7.41146 112.812 6.96354 112.656 6.57812C112.505 6.1875 112.273 5.88542 111.961 5.67188C111.648 5.45312 111.247 5.34375 110.758 5.34375ZM119.758 4.28125C120.487 4.28125 121.112 4.44271 121.633 4.76562C122.154 5.08854 122.552 5.54167 122.828 6.125C123.104 6.70312 123.242 7.38021 123.242 8.15625V8.96094H117.328C117.344 9.96615 117.594 10.7318 118.078 11.2578C118.562 11.7839 119.245 12.0469 120.125 12.0469C120.667 12.0469 121.146 11.9974 121.562 11.8984C121.979 11.7995 122.411 11.6536 122.859 11.4609V12.6016C122.427 12.7943 121.997 12.9349 121.57 13.0234C121.148 13.112 120.648 13.1562 120.07 13.1562C119.247 13.1562 118.529 12.9896 117.914 12.6562C117.305 12.3177 116.831 11.8229 116.492 11.1719C116.154 10.5208 115.984 9.72396 115.984 8.78125C115.984 7.85938 116.138 7.0625 116.445 6.39062C116.758 5.71354 117.195 5.19271 117.758 4.82812C118.326 4.46354 118.992 4.28125 119.758 4.28125ZM119.742 5.34375C119.049 5.34375 118.497 5.57031 118.086 6.02344C117.674 6.47656 117.43 7.10938 117.352 7.92188H121.883C121.878 7.41146 121.797 6.96354 121.641 6.57812C121.49 6.1875 121.258 5.88542 120.945 5.67188C120.633 5.45312 120.232 5.34375 119.742 5.34375ZM128.211 12.0938C128.424 12.0938 128.643 12.0755 128.867 12.0391C129.091 12.0026 129.273 11.9583 129.414 11.9062V12.9141C129.263 12.9818 129.052 13.0391 128.781 13.0859C128.516 13.1328 128.255 13.1562 128 13.1562C127.547 13.1562 127.135 13.0781 126.766 12.9219C126.396 12.7604 126.099 12.4896 125.875 12.1094C125.656 11.7292 125.547 11.2031 125.547 10.5312V5.45312H124.328V4.82031L125.555 4.3125L126.07 2.45312H126.852V4.4375H129.359V5.45312H126.852V10.4922C126.852 11.0286 126.974 11.4297 127.219 11.6953C127.469 11.9609 127.799 12.0938 128.211 12.0938ZM132.633 11.1406L132.734 11.3203C132.641 11.7005 132.521 12.1068 132.375 12.5391C132.234 12.9714 132.078 13.4036 131.906 13.8359C131.74 14.2734 131.57 14.6823 131.398 15.0625H130.43C130.539 14.6458 130.646 14.2057 130.75 13.7422C130.854 13.2839 130.948 12.8307 131.031 12.3828C131.12 11.9297 131.19 11.5156 131.242 11.1406H132.633ZM135.484 13V1.57812H136.812V13H135.484ZM149.055 4.28125C149.997 4.28125 150.708 4.52865 151.188 5.02344C151.667 5.51302 151.906 6.30208 151.906 7.39062V13H150.625V7.45312C150.625 6.76042 150.474 6.24219 150.172 5.89844C149.875 5.54948 149.432 5.375 148.844 5.375C148.016 5.375 147.414 5.61458 147.039 6.09375C146.664 6.57292 146.477 7.27865 146.477 8.21094V13H145.188V7.45312C145.188 6.98958 145.12 6.60417 144.984 6.29688C144.854 5.98958 144.656 5.76042 144.391 5.60938C144.13 5.45312 143.799 5.375 143.398 5.375C142.831 5.375 142.375 5.49219 142.031 5.72656C141.688 5.96094 141.438 6.3099 141.281 6.77344C141.13 7.23177 141.055 7.79688 141.055 8.46875V13H139.758V4.4375H140.805L141 5.64844H141.07C141.242 5.35156 141.458 5.10156 141.719 4.89844C141.979 4.69531 142.271 4.54167 142.594 4.4375C142.917 4.33333 143.26 4.28125 143.625 4.28125C144.276 4.28125 144.82 4.40365 145.258 4.64844C145.701 4.88802 146.021 5.25521 146.219 5.75H146.289C146.57 5.25521 146.956 4.88802 147.445 4.64844C147.935 4.40365 148.471 4.28125 149.055 4.28125ZM157.773 4.29688C158.794 4.29688 159.552 4.52604 160.047 4.98438C160.542 5.44271 160.789 6.17448 160.789 7.17969V13H159.844L159.594 11.7344H159.531C159.292 12.0469 159.042 12.3099 158.781 12.5234C158.521 12.7318 158.219 12.8906 157.875 13C157.536 13.1042 157.12 13.1562 156.625 13.1562C156.104 13.1562 155.641 13.0651 155.234 12.8828C154.833 12.7005 154.516 12.4245 154.281 12.0547C154.052 11.6849 153.938 11.2161 153.938 10.6484C153.938 9.79427 154.276 9.13802 154.953 8.67969C155.63 8.22135 156.661 7.97135 158.047 7.92969L159.523 7.86719V7.34375C159.523 6.60417 159.365 6.08594 159.047 5.78906C158.729 5.49219 158.281 5.34375 157.703 5.34375C157.255 5.34375 156.828 5.40885 156.422 5.53906C156.016 5.66927 155.63 5.82292 155.266 6L154.867 5.01562C155.253 4.81771 155.695 4.64844 156.195 4.50781C156.695 4.36719 157.221 4.29688 157.773 4.29688ZM159.508 8.78125L158.203 8.83594C157.135 8.8776 156.383 9.05208 155.945 9.35938C155.508 9.66667 155.289 10.1016 155.289 10.6641C155.289 11.1536 155.438 11.5156 155.734 11.75C156.031 11.9844 156.424 12.1016 156.914 12.1016C157.674 12.1016 158.297 11.8906 158.781 11.4688C159.266 11.0469 159.508 10.4141 159.508 9.57031V8.78125ZM165.852 16.8438C164.727 16.8438 163.859 16.6328 163.25 16.2109C162.641 15.7943 162.336 15.2083 162.336 14.4531C162.336 13.9167 162.505 13.4583 162.844 13.0781C163.188 12.6979 163.661 12.4453 164.266 12.3203C164.042 12.2161 163.849 12.0599 163.688 11.8516C163.531 11.6432 163.453 11.4036 163.453 11.1328C163.453 10.8203 163.539 10.5469 163.711 10.3125C163.888 10.0729 164.156 9.84375 164.516 9.625C164.068 9.44271 163.703 9.13542 163.422 8.70312C163.146 8.26562 163.008 7.75781 163.008 7.17969C163.008 6.5651 163.135 6.04167 163.391 5.60938C163.646 5.17188 164.016 4.83854 164.5 4.60938C164.984 4.38021 165.57 4.26562 166.258 4.26562C166.409 4.26562 166.56 4.27344 166.711 4.28906C166.867 4.29948 167.016 4.31771 167.156 4.34375C167.297 4.36458 167.419 4.39062 167.523 4.42188H170.461V5.25781L168.883 5.45312C169.039 5.65625 169.169 5.90104 169.273 6.1875C169.378 6.47396 169.43 6.79167 169.43 7.14062C169.43 7.99479 169.141 8.67448 168.562 9.17969C167.984 9.67969 167.19 9.92969 166.18 9.92969C165.94 9.92969 165.695 9.90885 165.445 9.86719C165.19 10.0078 164.995 10.1641 164.859 10.3359C164.729 10.5078 164.664 10.7057 164.664 10.9297C164.664 11.0964 164.714 11.2292 164.812 11.3281C164.917 11.4271 165.065 11.5 165.258 11.5469C165.451 11.5885 165.682 11.6094 165.953 11.6094H167.461C168.393 11.6094 169.107 11.8047 169.602 12.1953C170.102 12.5859 170.352 13.1562 170.352 13.9062C170.352 14.8542 169.966 15.5807 169.195 16.0859C168.424 16.5911 167.31 16.8438 165.852 16.8438ZM165.891 15.8281C166.599 15.8281 167.185 15.7552 167.648 15.6094C168.117 15.4688 168.466 15.263 168.695 14.9922C168.93 14.7266 169.047 14.4089 169.047 14.0391C169.047 13.6953 168.969 13.4349 168.812 13.2578C168.656 13.0859 168.427 12.9714 168.125 12.9141C167.823 12.8516 167.453 12.8203 167.016 12.8203H165.531C165.146 12.8203 164.81 12.8802 164.523 13C164.237 13.1198 164.016 13.2969 163.859 13.5312C163.708 13.7656 163.633 14.0573 163.633 14.4062C163.633 14.8698 163.828 15.2214 164.219 15.4609C164.609 15.7057 165.167 15.8281 165.891 15.8281ZM166.227 8.98438C166.846 8.98438 167.312 8.82812 167.625 8.51562C167.938 8.20312 168.094 7.7474 168.094 7.14844C168.094 6.50781 167.935 6.02865 167.617 5.71094C167.299 5.38802 166.831 5.22656 166.211 5.22656C165.617 5.22656 165.159 5.39323 164.836 5.72656C164.518 6.05469 164.359 6.53646 164.359 7.17188C164.359 7.75521 164.521 8.20312 164.844 8.51562C165.167 8.82812 165.628 8.98438 166.227 8.98438ZM173.445 4.4375V13H172.148V4.4375H173.445ZM172.812 1.23438C173.026 1.23438 173.208 1.30469 173.359 1.44531C173.516 1.58073 173.594 1.79427 173.594 2.08594C173.594 2.3724 173.516 2.58594 173.359 2.72656C173.208 2.86719 173.026 2.9375 172.812 2.9375C172.589 2.9375 172.401 2.86719 172.25 2.72656C172.104 2.58594 172.031 2.3724 172.031 2.08594C172.031 1.79427 172.104 1.58073 172.25 1.44531C172.401 1.30469 172.589 1.23438 172.812 1.23438ZM180.25 4.28125C181.266 4.28125 182.034 4.53125 182.555 5.03125C183.076 5.52604 183.336 6.32292 183.336 7.42188V13H182.055V7.50781C182.055 6.79427 181.891 6.26042 181.562 5.90625C181.24 5.55208 180.742 5.375 180.07 5.375C179.122 5.375 178.456 5.64323 178.07 6.17969C177.685 6.71615 177.492 7.49479 177.492 8.51562V13H176.195V4.4375H177.242L177.438 5.67188H177.508C177.69 5.36979 177.922 5.11719 178.203 4.91406C178.484 4.70573 178.799 4.54948 179.148 4.44531C179.497 4.33594 179.865 4.28125 180.25 4.28125ZM189.211 4.29688C190.232 4.29688 190.99 4.52604 191.484 4.98438C191.979 5.44271 192.227 6.17448 192.227 7.17969V13H191.281L191.031 11.7344H190.969C190.729 12.0469 190.479 12.3099 190.219 12.5234C189.958 12.7318 189.656 12.8906 189.312 13C188.974 13.1042 188.557 13.1562 188.062 13.1562C187.542 13.1562 187.078 13.0651 186.672 12.8828C186.271 12.7005 185.953 12.4245 185.719 12.0547C185.49 11.6849 185.375 11.2161 185.375 10.6484C185.375 9.79427 185.714 9.13802 186.391 8.67969C187.068 8.22135 188.099 7.97135 189.484 7.92969L190.961 7.86719V7.34375C190.961 6.60417 190.802 6.08594 190.484 5.78906C190.167 5.49219 189.719 5.34375 189.141 5.34375C188.693 5.34375 188.266 5.40885 187.859 5.53906C187.453 5.66927 187.068 5.82292 186.703 6L186.305 5.01562C186.69 4.81771 187.133 4.64844 187.633 4.50781C188.133 4.36719 188.659 4.29688 189.211 4.29688ZM190.945 8.78125L189.641 8.83594C188.573 8.8776 187.82 9.05208 187.383 9.35938C186.945 9.66667 186.727 10.1016 186.727 10.6641C186.727 11.1536 186.875 11.5156 187.172 11.75C187.469 11.9844 187.862 12.1016 188.352 12.1016C189.112 12.1016 189.734 11.8906 190.219 11.4688C190.703 11.0469 190.945 10.4141 190.945 9.57031V8.78125ZM197.664 12.0938C197.878 12.0938 198.096 12.0755 198.32 12.0391C198.544 12.0026 198.727 11.9583 198.867 11.9062V12.9141C198.716 12.9818 198.505 13.0391 198.234 13.0859C197.969 13.1328 197.708 13.1562 197.453 13.1562C197 13.1562 196.589 13.0781 196.219 12.9219C195.849 12.7604 195.552 12.4896 195.328 12.1094C195.109 11.7292 195 11.2031 195 10.5312V5.45312H193.781V4.82031L195.008 4.3125L195.523 2.45312H196.305V4.4375H198.812V5.45312H196.305V10.4922C196.305 11.0286 196.427 11.4297 196.672 11.6953C196.922 11.9609 197.253 12.0938 197.664 12.0938ZM201.898 4.4375V13H200.602V4.4375H201.898ZM201.266 1.23438C201.479 1.23438 201.661 1.30469 201.812 1.44531C201.969 1.58073 202.047 1.79427 202.047 2.08594C202.047 2.3724 201.969 2.58594 201.812 2.72656C201.661 2.86719 201.479 2.9375 201.266 2.9375C201.042 2.9375 200.854 2.86719 200.703 2.72656C200.557 2.58594 200.484 2.3724 200.484 2.08594C200.484 1.79427 200.557 1.58073 200.703 1.44531C200.854 1.30469 201.042 1.23438 201.266 1.23438ZM212.031 8.70312C212.031 9.40625 211.94 10.0339 211.758 10.5859C211.576 11.138 211.312 11.6042 210.969 11.9844C210.625 12.3646 210.208 12.6562 209.719 12.8594C209.234 13.0573 208.685 13.1562 208.07 13.1562C207.497 13.1562 206.971 13.0573 206.492 12.8594C206.018 12.6562 205.607 12.3646 205.258 11.9844C204.914 11.6042 204.646 11.138 204.453 10.5859C204.266 10.0339 204.172 9.40625 204.172 8.70312C204.172 7.76562 204.331 6.96875 204.648 6.3125C204.966 5.65104 205.419 5.14844 206.008 4.80469C206.602 4.45573 207.307 4.28125 208.125 4.28125C208.906 4.28125 209.589 4.45573 210.172 4.80469C210.76 5.15365 211.216 5.65885 211.539 6.32031C211.867 6.97656 212.031 7.77083 212.031 8.70312ZM205.516 8.70312C205.516 9.39062 205.607 9.98698 205.789 10.4922C205.971 10.9974 206.253 11.388 206.633 11.6641C207.013 11.9401 207.503 12.0781 208.102 12.0781C208.695 12.0781 209.182 11.9401 209.562 11.6641C209.948 11.388 210.232 10.9974 210.414 10.4922C210.596 9.98698 210.688 9.39062 210.688 8.70312C210.688 8.02083 210.596 7.43229 210.414 6.9375C210.232 6.4375 209.951 6.05208 209.57 5.78125C209.19 5.51042 208.698 5.375 208.094 5.375C207.203 5.375 206.549 5.66927 206.133 6.25781C205.721 6.84635 205.516 7.66146 205.516 8.70312ZM218.328 4.28125C219.344 4.28125 220.112 4.53125 220.633 5.03125C221.154 5.52604 221.414 6.32292 221.414 7.42188V13H220.133V7.50781C220.133 6.79427 219.969 6.26042 219.641 5.90625C219.318 5.55208 218.82 5.375 218.148 5.375C217.201 5.375 216.534 5.64323 216.148 6.17969C215.763 6.71615 215.57 7.49479 215.57 8.51562V13H214.273V4.4375H215.32L215.516 5.67188H215.586C215.768 5.36979 216 5.11719 216.281 4.91406C216.562 4.70573 216.878 4.54948 217.227 4.44531C217.576 4.33594 217.943 4.28125 218.328 4.28125ZM233.32 2.58594C232.69 2.58594 232.122 2.69531 231.617 2.91406C231.117 3.1276 230.69 3.4401 230.336 3.85156C229.987 4.25781 229.719 4.75 229.531 5.32812C229.344 5.90625 229.25 6.55729 229.25 7.28125C229.25 8.23958 229.398 9.07292 229.695 9.78125C229.997 10.4844 230.445 11.0286 231.039 11.4141C231.638 11.7995 232.385 11.9922 233.281 11.9922C233.792 11.9922 234.271 11.9505 234.719 11.8672C235.172 11.7786 235.612 11.6693 236.039 11.5391V12.6953C235.622 12.8516 235.185 12.9661 234.727 13.0391C234.268 13.1172 233.724 13.1562 233.094 13.1562C231.932 13.1562 230.961 12.9167 230.18 12.4375C229.404 11.9531 228.82 11.2708 228.43 10.3906C228.044 9.51042 227.852 8.47135 227.852 7.27344C227.852 6.40885 227.971 5.61979 228.211 4.90625C228.456 4.1875 228.81 3.56771 229.273 3.04688C229.742 2.52604 230.315 2.125 230.992 1.84375C231.674 1.55729 232.456 1.41406 233.336 1.41406C233.914 1.41406 234.471 1.47135 235.008 1.58594C235.544 1.70052 236.029 1.86458 236.461 2.07812L235.93 3.20312C235.565 3.03646 235.164 2.89323 234.727 2.77344C234.294 2.64844 233.826 2.58594 233.32 2.58594ZM239.617 4.4375V13H238.32V4.4375H239.617ZM238.984 1.23438C239.198 1.23438 239.38 1.30469 239.531 1.44531C239.688 1.58073 239.766 1.79427 239.766 2.08594C239.766 2.3724 239.688 2.58594 239.531 2.72656C239.38 2.86719 239.198 2.9375 238.984 2.9375C238.76 2.9375 238.573 2.86719 238.422 2.72656C238.276 2.58594 238.203 2.3724 238.203 2.08594C238.203 1.79427 238.276 1.58073 238.422 1.44531C238.573 1.30469 238.76 1.23438 238.984 1.23438ZM245.133 12.0938C245.346 12.0938 245.565 12.0755 245.789 12.0391C246.013 12.0026 246.195 11.9583 246.336 11.9062V12.9141C246.185 12.9818 245.974 13.0391 245.703 13.0859C245.438 13.1328 245.177 13.1562 244.922 13.1562C244.469 13.1562 244.057 13.0781 243.688 12.9219C243.318 12.7604 243.021 12.4896 242.797 12.1094C242.578 11.7292 242.469 11.2031 242.469 10.5312V5.45312H241.25V4.82031L242.477 4.3125L242.992 2.45312H243.773V4.4375H246.281V5.45312H243.773V10.4922C243.773 11.0286 243.896 11.4297 244.141 11.6953C244.391 11.9609 244.721 12.0938 245.133 12.0938ZM246.719 4.4375H248.109L250 9.40625C250.109 9.69792 250.211 9.97917 250.305 10.25C250.398 10.5156 250.482 10.7708 250.555 11.0156C250.628 11.2604 250.685 11.4974 250.727 11.7266H250.781C250.854 11.4661 250.958 11.125 251.094 10.7031C251.229 10.276 251.375 9.84115 251.531 9.39844L253.32 4.4375H254.719L250.992 14.2578C250.794 14.7839 250.562 15.2422 250.297 15.6328C250.036 16.0234 249.719 16.3229 249.344 16.5312C248.969 16.7448 248.516 16.8516 247.984 16.8516C247.74 16.8516 247.523 16.8359 247.336 16.8047C247.148 16.7786 246.987 16.7474 246.852 16.7109V15.6719C246.966 15.6979 247.104 15.7214 247.266 15.7422C247.432 15.763 247.604 15.7734 247.781 15.7734C248.104 15.7734 248.383 15.7109 248.617 15.5859C248.857 15.4661 249.062 15.2891 249.234 15.0547C249.406 14.8203 249.555 14.5417 249.68 14.2188L250.148 13.0156L246.719 4.4375ZM11.4688 29.2734C11.4688 30.1536 11.3568 30.9557 11.1328 31.6797C10.9089 32.3984 10.5755 33.0182 10.1328 33.5391C9.69531 34.0547 9.15104 34.4531 8.5 34.7344C7.84896 35.0156 7.09375 35.1562 6.23438 35.1562C5.34896 35.1562 4.57552 35.0156 3.91406 34.7344C3.25781 34.4531 2.71094 34.0521 2.27344 33.5312C1.84115 33.0104 1.51562 32.388 1.29688 31.6641C1.08333 30.9401 0.976562 30.138 0.976562 29.2578C0.976562 28.0911 1.16927 27.0677 1.55469 26.1875C1.9401 25.3073 2.52344 24.6224 3.30469 24.1328C4.09115 23.6432 5.07552 23.3984 6.25781 23.3984C7.38802 23.3984 8.33854 23.6406 9.10938 24.125C9.88542 24.6094 10.4714 25.2917 10.8672 26.1719C11.2682 27.0469 11.4688 28.0807 11.4688 29.2734ZM2.375 29.2734C2.375 30.2422 2.51302 31.0807 2.78906 31.7891C3.0651 32.4974 3.48698 33.0443 4.05469 33.4297C4.6276 33.8151 5.35417 34.0078 6.23438 34.0078C7.11979 34.0078 7.84375 33.8151 8.40625 33.4297C8.97396 33.0443 9.39323 32.4974 9.66406 31.7891C9.9349 31.0807 10.0703 30.2422 10.0703 29.2734C10.0703 27.7995 9.76042 26.6484 9.14062 25.8203C8.52604 24.987 7.5651 24.5703 6.25781 24.5703C5.3724 24.5703 4.64323 24.7604 4.07031 25.1406C3.4974 25.5208 3.07031 26.0625 2.78906 26.7656C2.51302 27.4635 2.375 28.2995 2.375 29.2734ZM17.0234 26.2969C18.0443 26.2969 18.8021 26.526 19.2969 26.9844C19.7917 27.4427 20.0391 28.1745 20.0391 29.1797V35H19.0938L18.8438 33.7344H18.7812C18.5417 34.0469 18.2917 34.3099 18.0312 34.5234C17.7708 34.7318 17.4688 34.8906 17.125 35C16.7865 35.1042 16.3698 35.1562 15.875 35.1562C15.3542 35.1562 14.8906 35.0651 14.4844 34.8828C14.0833 34.7005 13.7656 34.4245 13.5312 34.0547C13.3021 33.6849 13.1875 33.2161 13.1875 32.6484C13.1875 31.7943 13.526 31.138 14.2031 30.6797C14.8802 30.2214 15.9115 29.9714 17.2969 29.9297L18.7734 29.8672V29.3438C18.7734 28.6042 18.6146 28.0859 18.2969 27.7891C17.9792 27.4922 17.5312 27.3438 16.9531 27.3438C16.5052 27.3438 16.0781 27.4089 15.6719 27.5391C15.2656 27.6693 14.8802 27.8229 14.5156 28L14.1172 27.0156C14.5026 26.8177 14.9453 26.6484 15.4453 26.5078C15.9453 26.3672 16.4714 26.2969 17.0234 26.2969ZM18.7578 30.7812L17.4531 30.8359C16.3854 30.8776 15.6328 31.0521 15.1953 31.3594C14.7578 31.6667 14.5391 32.1016 14.5391 32.6641C14.5391 33.1536 14.6875 33.5156 14.9844 33.75C15.2812 33.9844 15.6745 34.1016 16.1641 34.1016C16.9245 34.1016 17.5469 33.8906 18.0312 33.4688C18.5156 33.0469 18.7578 32.4141 18.7578 31.5703V30.7812ZM24 22.8438V29.1562C24 29.3646 23.9922 29.6198 23.9766 29.9219C23.9609 30.2188 23.9479 30.4818 23.9375 30.7109H23.9922C24.1016 30.5755 24.2604 30.375 24.4688 30.1094C24.6823 29.8438 24.862 29.6302 25.0078 29.4688L27.8516 26.4375H29.375L25.9297 30.0938L29.625 35H28.0625L25.0391 30.9453L24 31.8984V35H22.7109V22.8438H24ZM32.4219 35H31.1172V22.8438H32.4219V35ZM38.3672 26.2969C39.388 26.2969 40.1458 26.526 40.6406 26.9844C41.1354 27.4427 41.3828 28.1745 41.3828 29.1797V35H40.4375L40.1875 33.7344H40.125C39.8854 34.0469 39.6354 34.3099 39.375 34.5234C39.1146 34.7318 38.8125 34.8906 38.4688 35C38.1302 35.1042 37.7135 35.1562 37.2188 35.1562C36.6979 35.1562 36.2344 35.0651 35.8281 34.8828C35.4271 34.7005 35.1094 34.4245 34.875 34.0547C34.6458 33.6849 34.5312 33.2161 34.5312 32.6484C34.5312 31.7943 34.8698 31.138 35.5469 30.6797C36.224 30.2214 37.2552 29.9714 38.6406 29.9297L40.1172 29.8672V29.3438C40.1172 28.6042 39.9583 28.0859 39.6406 27.7891C39.3229 27.4922 38.875 27.3438 38.2969 27.3438C37.849 27.3438 37.4219 27.4089 37.0156 27.5391C36.6094 27.6693 36.224 27.8229 35.8594 28L35.4609 27.0156C35.8464 26.8177 36.2891 26.6484 36.7891 26.5078C37.2891 26.3672 37.8151 26.2969 38.3672 26.2969ZM40.1016 30.7812L38.7969 30.8359C37.7292 30.8776 36.9766 31.0521 36.5391 31.3594C36.1016 31.6667 35.8828 32.1016 35.8828 32.6641C35.8828 33.1536 36.0312 33.5156 36.3281 33.75C36.625 33.9844 37.0182 34.1016 37.5078 34.1016C38.2682 34.1016 38.8906 33.8906 39.375 33.4688C39.8594 33.0469 40.1016 32.4141 40.1016 31.5703V30.7812ZM48.1094 26.2812C49.125 26.2812 49.8932 26.5312 50.4141 27.0312C50.9349 27.526 51.1953 28.3229 51.1953 29.4219V35H49.9141V29.5078C49.9141 28.7943 49.75 28.2604 49.4219 27.9062C49.099 27.5521 48.6016 27.375 47.9297 27.375C46.9818 27.375 46.3151 27.6432 45.9297 28.1797C45.5443 28.7161 45.3516 29.4948 45.3516 30.5156V35H44.0547V26.4375H45.1016L45.2969 27.6719H45.3672C45.5495 27.3698 45.7812 27.1172 46.0625 26.9141C46.3438 26.7057 46.6589 26.5495 47.0078 26.4453C47.3568 26.3359 47.724 26.2812 48.1094 26.2812ZM56.9141 35.1562C55.8307 35.1562 54.9714 34.7865 54.3359 34.0469C53.7057 33.3073 53.3906 32.2083 53.3906 30.75C53.3906 29.276 53.7135 28.1641 54.3594 27.4141C55.0052 26.6589 55.8646 26.2812 56.9375 26.2812C57.3906 26.2812 57.7865 26.3411 58.125 26.4609C58.4635 26.5807 58.7552 26.7422 59 26.9453C59.2448 27.1432 59.4505 27.3698 59.6172 27.625H59.7109C59.6901 27.4635 59.6693 27.2422 59.6484 26.9609C59.6276 26.6797 59.6172 26.4505 59.6172 26.2734V22.8438H60.9141V35H59.8672L59.6719 33.7812H59.6172C59.4557 34.0365 59.25 34.2682 59 34.4766C58.7552 34.6849 58.4609 34.8516 58.1172 34.9766C57.7786 35.0964 57.3776 35.1562 56.9141 35.1562ZM57.1172 34.0781C58.0339 34.0781 58.6823 33.8177 59.0625 33.2969C59.4427 32.776 59.6328 32.0026 59.6328 30.9766V30.7422C59.6328 29.6536 59.4505 28.8177 59.0859 28.2344C58.7266 27.651 58.0703 27.3594 57.1172 27.3594C56.3203 27.3594 55.724 27.6667 55.3281 28.2812C54.9323 28.8906 54.7344 29.724 54.7344 30.7812C54.7344 31.8333 54.9297 32.6458 55.3203 33.2188C55.7161 33.7917 56.3151 34.0781 57.1172 34.0781ZM71.25 35.1562C70.4792 35.1562 69.7995 34.9974 69.2109 34.6797C68.6224 34.362 68.1641 33.8776 67.8359 33.2266C67.5078 32.5755 67.3438 31.7552 67.3438 30.7656C67.3438 29.7292 67.5156 28.8828 67.8594 28.2266C68.2083 27.5651 68.6875 27.0755 69.2969 26.7578C69.9062 26.4401 70.599 26.2812 71.375 26.2812C71.8021 26.2812 72.2135 26.3255 72.6094 26.4141C73.0104 26.4974 73.3385 26.6042 73.5938 26.7344L73.2031 27.8203C72.9427 27.7161 72.6406 27.6224 72.2969 27.5391C71.9583 27.4557 71.6406 27.4141 71.3438 27.4141C70.75 27.4141 70.2552 27.5417 69.8594 27.7969C69.4688 28.0521 69.1745 28.4271 68.9766 28.9219C68.7839 29.4167 68.6875 30.026 68.6875 30.75C68.6875 31.4427 68.7812 32.0339 68.9688 32.5234C69.1615 33.013 69.4453 33.388 69.8203 33.6484C70.2005 33.9036 70.6745 34.0312 71.2422 34.0312C71.6953 34.0312 72.1042 33.9844 72.4688 33.8906C72.8333 33.7917 73.1641 33.6771 73.4609 33.5469V34.7031C73.1745 34.849 72.8542 34.9609 72.5 35.0391C72.151 35.1172 71.7344 35.1562 71.25 35.1562ZM82.875 30.7031C82.875 31.4062 82.7839 32.0339 82.6016 32.5859C82.4193 33.138 82.1562 33.6042 81.8125 33.9844C81.4688 34.3646 81.0521 34.6562 80.5625 34.8594C80.0781 35.0573 79.5286 35.1562 78.9141 35.1562C78.3411 35.1562 77.8151 35.0573 77.3359 34.8594C76.862 34.6562 76.4505 34.3646 76.1016 33.9844C75.7578 33.6042 75.4896 33.138 75.2969 32.5859C75.1094 32.0339 75.0156 31.4062 75.0156 30.7031C75.0156 29.7656 75.1745 28.9688 75.4922 28.3125C75.8099 27.651 76.263 27.1484 76.8516 26.8047C77.4453 26.4557 78.151 26.2812 78.9688 26.2812C79.75 26.2812 80.4323 26.4557 81.0156 26.8047C81.6042 27.1536 82.0599 27.6589 82.3828 28.3203C82.7109 28.9766 82.875 29.7708 82.875 30.7031ZM76.3594 30.7031C76.3594 31.3906 76.4505 31.987 76.6328 32.4922C76.8151 32.9974 77.0964 33.388 77.4766 33.6641C77.8568 33.9401 78.3464 34.0781 78.9453 34.0781C79.5391 34.0781 80.026 33.9401 80.4062 33.6641C80.7917 33.388 81.0755 32.9974 81.2578 32.4922C81.4401 31.987 81.5312 31.3906 81.5312 30.7031C81.5312 30.0208 81.4401 29.4323 81.2578 28.9375C81.0755 28.4375 80.7943 28.0521 80.4141 27.7812C80.0339 27.5104 79.5417 27.375 78.9375 27.375C78.0469 27.375 77.3932 27.6693 76.9766 28.2578C76.5651 28.8464 76.3594 29.6615 76.3594 30.7031ZM92.1875 26.4375V35H91.125L90.9375 33.7969H90.8672C90.6901 34.0938 90.4609 34.3438 90.1797 34.5469C89.8984 34.75 89.5807 34.901 89.2266 35C88.8776 35.1042 88.5052 35.1562 88.1094 35.1562C87.4323 35.1562 86.8646 35.0469 86.4062 34.8281C85.9479 34.6094 85.6016 34.2708 85.3672 33.8125C85.138 33.3542 85.0234 32.7656 85.0234 32.0469V26.4375H86.3359V31.9531C86.3359 32.6667 86.4974 33.2005 86.8203 33.5547C87.1432 33.9036 87.6354 34.0781 88.2969 34.0781C88.9323 34.0781 89.4375 33.9583 89.8125 33.7188C90.1927 33.4792 90.4661 33.1276 90.6328 32.6641C90.7995 32.1953 90.8828 31.6224 90.8828 30.9453V26.4375H92.1875ZM98.9844 26.2812C100 26.2812 100.768 26.5312 101.289 27.0312C101.81 27.526 102.07 28.3229 102.07 29.4219V35H100.789V29.5078C100.789 28.7943 100.625 28.2604 100.297 27.9062C99.974 27.5521 99.4766 27.375 98.8047 27.375C97.8568 27.375 97.1901 27.6432 96.8047 28.1797C96.4193 28.7161 96.2266 29.4948 96.2266 30.5156V35H94.9297V26.4375H95.9766L96.1719 27.6719H96.2422C96.4245 27.3698 96.6562 27.1172 96.9375 26.9141C97.2188 26.7057 97.5339 26.5495 97.8828 26.4453C98.2318 26.3359 98.599 26.2812 98.9844 26.2812ZM107.508 34.0938C107.721 34.0938 107.94 34.0755 108.164 34.0391C108.388 34.0026 108.57 33.9583 108.711 33.9062V34.9141C108.56 34.9818 108.349 35.0391 108.078 35.0859C107.812 35.1328 107.552 35.1562 107.297 35.1562C106.844 35.1562 106.432 35.0781 106.062 34.9219C105.693 34.7604 105.396 34.4896 105.172 34.1094C104.953 33.7292 104.844 33.2031 104.844 32.5312V27.4531H103.625V26.8203L104.852 26.3125L105.367 24.4531H106.148V26.4375H108.656V27.4531H106.148V32.4922C106.148 33.0286 106.271 33.4297 106.516 33.6953C106.766 33.9609 107.096 34.0938 107.508 34.0938ZM109.094 26.4375H110.484L112.375 31.4062C112.484 31.6979 112.586 31.9792 112.68 32.25C112.773 32.5156 112.857 32.7708 112.93 33.0156C113.003 33.2604 113.06 33.4974 113.102 33.7266H113.156C113.229 33.4661 113.333 33.125 113.469 32.7031C113.604 32.276 113.75 31.8411 113.906 31.3984L115.695 26.4375H117.094L113.367 36.2578C113.169 36.7839 112.938 37.2422 112.672 37.6328C112.411 38.0234 112.094 38.3229 111.719 38.5312C111.344 38.7448 110.891 38.8516 110.359 38.8516C110.115 38.8516 109.898 38.8359 109.711 38.8047C109.523 38.7786 109.362 38.7474 109.227 38.7109V37.6719C109.341 37.6979 109.479 37.7214 109.641 37.7422C109.807 37.763 109.979 37.7734 110.156 37.7734C110.479 37.7734 110.758 37.7109 110.992 37.5859C111.232 37.4661 111.438 37.2891 111.609 37.0547C111.781 36.8203 111.93 36.5417 112.055 36.2188L112.523 35.0156L109.094 26.4375ZM119.945 33.1406L120.047 33.3203C119.953 33.7005 119.833 34.1068 119.688 34.5391C119.547 34.9714 119.391 35.4036 119.219 35.8359C119.052 36.2734 118.883 36.6823 118.711 37.0625H117.742C117.852 36.6458 117.958 36.2057 118.062 35.7422C118.167 35.2839 118.26 34.8307 118.344 34.3828C118.432 33.9297 118.503 33.5156 118.555 33.1406H119.945ZM131.438 23.5781V30.9688C131.438 31.776 131.273 32.4948 130.945 33.125C130.622 33.7552 130.133 34.2526 129.477 34.6172C128.82 34.9766 127.997 35.1562 127.008 35.1562C125.596 35.1562 124.521 34.7734 123.781 34.0078C123.047 33.2422 122.68 32.2188 122.68 30.9375V23.5781H124.016V30.9766C124.016 31.9453 124.271 32.6927 124.781 33.2188C125.297 33.7448 126.065 34.0078 127.086 34.0078C127.784 34.0078 128.354 33.8828 128.797 33.6328C129.245 33.3776 129.576 33.0234 129.789 32.5703C130.008 32.112 130.117 31.5833 130.117 30.9844V23.5781H131.438ZM140.914 31.9609C140.914 32.638 140.745 33.2161 140.406 33.6953C140.073 34.1693 139.604 34.5312 139 34.7812C138.396 35.0312 137.685 35.1562 136.867 35.1562C136.435 35.1562 136.026 35.1354 135.641 35.0938C135.255 35.0521 134.901 34.9922 134.578 34.9141C134.255 34.8359 133.971 34.7396 133.727 34.625V33.3516C134.117 33.513 134.594 33.6641 135.156 33.8047C135.719 33.9401 136.307 34.0078 136.922 34.0078C137.495 34.0078 137.979 33.9323 138.375 33.7812C138.771 33.625 139.07 33.4036 139.273 33.1172C139.482 32.8255 139.586 32.4766 139.586 32.0703C139.586 31.6797 139.5 31.3542 139.328 31.0938C139.156 30.8281 138.87 30.5885 138.469 30.375C138.073 30.1562 137.531 29.9245 136.844 29.6797C136.359 29.5078 135.932 29.3203 135.562 29.1172C135.193 28.9089 134.883 28.6745 134.633 28.4141C134.383 28.1536 134.193 27.8516 134.062 27.5078C133.938 27.1641 133.875 26.7708 133.875 26.3281C133.875 25.7188 134.029 25.1979 134.336 24.7656C134.648 24.3281 135.078 23.9948 135.625 23.7656C136.177 23.5312 136.81 23.4141 137.523 23.4141C138.133 23.4141 138.695 23.4714 139.211 23.5859C139.732 23.7005 140.208 23.8542 140.641 24.0469L140.227 25.1875C139.815 25.0156 139.378 24.8724 138.914 24.7578C138.456 24.6432 137.982 24.5859 137.492 24.5859C137.003 24.5859 136.589 24.6589 136.25 24.8047C135.917 24.9453 135.661 25.1458 135.484 25.4062C135.307 25.6667 135.219 25.9766 135.219 26.3359C135.219 26.737 135.302 27.0703 135.469 27.3359C135.641 27.6016 135.911 27.8385 136.281 28.0469C136.656 28.25 137.151 28.4635 137.766 28.6875C138.438 28.9323 139.008 29.1927 139.477 29.4688C139.945 29.7396 140.302 30.0729 140.547 30.4688C140.792 30.8594 140.914 31.3568 140.914 31.9609ZM150.414 35L149.008 31.375H144.43L143.031 35H141.688L146.156 23.5312H147.352L151.789 35H150.414ZM148.609 30.1953L147.273 26.5938C147.242 26.5 147.19 26.3464 147.117 26.1328C147.049 25.9193 146.979 25.6979 146.906 25.4688C146.833 25.2396 146.773 25.0547 146.727 24.9141C146.674 25.1276 146.617 25.3411 146.555 25.5547C146.497 25.763 146.44 25.9583 146.383 26.1406C146.326 26.3177 146.276 26.4688 146.234 26.5938L144.875 30.1953H148.609ZM152.984 34.1875C152.984 33.8229 153.073 33.5651 153.25 33.4141C153.427 33.2578 153.643 33.1797 153.898 33.1797C154.164 33.1797 154.388 33.2578 154.57 33.4141C154.753 33.5651 154.844 33.8229 154.844 34.1875C154.844 34.5469 154.753 34.8099 154.57 34.9766C154.388 35.138 154.164 35.2188 153.898 35.2188C153.643 35.2188 153.427 35.138 153.25 34.9766C153.073 34.8099 152.984 34.5469 152.984 34.1875ZM4.54688 45.5781C6.02083 45.5781 7.09635 45.8672 7.77344 46.4453C8.45573 47.0182 8.79688 47.8411 8.79688 48.9141C8.79688 49.3984 8.71615 49.8594 8.55469 50.2969C8.39844 50.7292 8.14323 51.112 7.78906 51.4453C7.4349 51.7734 6.96875 52.0339 6.39062 52.2266C5.81771 52.4141 5.11458 52.5078 4.28125 52.5078H2.89062V57H1.5625V45.5781H4.54688ZM4.42188 46.7109H2.89062V51.3672H4.13281C4.86198 51.3672 5.46875 51.2891 5.95312 51.1328C6.44271 50.9766 6.8099 50.724 7.05469 50.375C7.29948 50.0208 7.42188 49.5521 7.42188 48.9688C7.42188 48.2083 7.17969 47.6432 6.69531 47.2734C6.21094 46.8984 5.45312 46.7109 4.42188 46.7109ZM18.375 52.7031C18.375 53.4062 18.2839 54.0339 18.1016 54.5859C17.9193 55.138 17.6562 55.6042 17.3125 55.9844C16.9688 56.3646 16.5521 56.6562 16.0625 56.8594C15.5781 57.0573 15.0286 57.1562 14.4141 57.1562C13.8411 57.1562 13.3151 57.0573 12.8359 56.8594C12.362 56.6562 11.9505 56.3646 11.6016 55.9844C11.2578 55.6042 10.9896 55.138 10.7969 54.5859C10.6094 54.0339 10.5156 53.4062 10.5156 52.7031C10.5156 51.7656 10.6745 50.9688 10.9922 50.3125C11.3099 49.651 11.763 49.1484 12.3516 48.8047C12.9453 48.4557 13.651 48.2812 14.4688 48.2812C15.25 48.2812 15.9323 48.4557 16.5156 48.8047C17.1042 49.1536 17.5599 49.6589 17.8828 50.3203C18.2109 50.9766 18.375 51.7708 18.375 52.7031ZM11.8594 52.7031C11.8594 53.3906 11.9505 53.987 12.1328 54.4922C12.3151 54.9974 12.5964 55.388 12.9766 55.6641C13.3568 55.9401 13.8464 56.0781 14.4453 56.0781C15.0391 56.0781 15.526 55.9401 15.9062 55.6641C16.2917 55.388 16.5755 54.9974 16.7578 54.4922C16.9401 53.987 17.0312 53.3906 17.0312 52.7031C17.0312 52.0208 16.9401 51.4323 16.7578 50.9375C16.5755 50.4375 16.2943 50.0521 15.9141 49.7812C15.5339 49.5104 15.0417 49.375 14.4375 49.375C13.5469 49.375 12.8932 49.6693 12.4766 50.2578C12.0651 50.8464 11.8594 51.6615 11.8594 52.7031ZM26.1562 54.6562C26.1562 55.2031 26.0182 55.6641 25.7422 56.0391C25.4714 56.4089 25.0807 56.6875 24.5703 56.875C24.0651 57.0625 23.4609 57.1562 22.7578 57.1562C22.1589 57.1562 21.6406 57.1094 21.2031 57.0156C20.7656 56.9219 20.3828 56.7891 20.0547 56.6172V55.4219C20.4036 55.5938 20.8203 55.75 21.3047 55.8906C21.7891 56.0312 22.2839 56.1016 22.7891 56.1016C23.5286 56.1016 24.0651 55.9818 24.3984 55.7422C24.7318 55.5026 24.8984 55.1771 24.8984 54.7656C24.8984 54.5312 24.8307 54.3255 24.6953 54.1484C24.5651 53.9661 24.3438 53.7917 24.0312 53.625C23.7188 53.4531 23.2865 53.2656 22.7344 53.0625C22.1875 52.8542 21.7135 52.6484 21.3125 52.4453C20.9167 52.237 20.6094 51.9844 20.3906 51.6875C20.1771 51.3906 20.0703 51.0052 20.0703 50.5312C20.0703 49.8073 20.362 49.2526 20.9453 48.8672C21.5339 48.4766 22.3047 48.2812 23.2578 48.2812C23.7734 48.2812 24.2552 48.3333 24.7031 48.4375C25.1562 48.5365 25.5781 48.6719 25.9688 48.8438L25.5312 49.8828C25.1771 49.7318 24.7995 49.6042 24.3984 49.5C23.9974 49.3958 23.5885 49.3438 23.1719 49.3438C22.5729 49.3438 22.112 49.4427 21.7891 49.6406C21.4714 49.8385 21.3125 50.1094 21.3125 50.4531C21.3125 50.7188 21.3854 50.9375 21.5312 51.1094C21.6823 51.2812 21.9219 51.4427 22.25 51.5938C22.5781 51.7448 23.0104 51.9219 23.5469 52.125C24.0833 52.3229 24.5469 52.5286 24.9375 52.7422C25.3281 52.9505 25.6276 53.2057 25.8359 53.5078C26.0495 53.8047 26.1562 54.1875 26.1562 54.6562ZM31.0078 56.0938C31.2214 56.0938 31.4401 56.0755 31.6641 56.0391C31.888 56.0026 32.0703 55.9583 32.2109 55.9062V56.9141C32.0599 56.9818 31.849 57.0391 31.5781 57.0859C31.3125 57.1328 31.0521 57.1562 30.7969 57.1562C30.3438 57.1562 29.9323 57.0781 29.5625 56.9219C29.1927 56.7604 28.8958 56.4896 28.6719 56.1094C28.4531 55.7292 28.3438 55.2031 28.3438 54.5312V49.4531H27.125V48.8203L28.3516 48.3125L28.8672 46.4531H29.6484V48.4375H32.1562V49.4531H29.6484V54.4922C29.6484 55.0286 29.7708 55.4297 30.0156 55.6953C30.2656 55.9609 30.5964 56.0938 31.0078 56.0938ZM37.1484 48.2969C38.1693 48.2969 38.9271 48.526 39.4219 48.9844C39.9167 49.4427 40.1641 50.1745 40.1641 51.1797V57H39.2188L38.9688 55.7344H38.9062C38.6667 56.0469 38.4167 56.3099 38.1562 56.5234C37.8958 56.7318 37.5938 56.8906 37.25 57C36.9115 57.1042 36.4948 57.1562 36 57.1562C35.4792 57.1562 35.0156 57.0651 34.6094 56.8828C34.2083 56.7005 33.8906 56.4245 33.6562 56.0547C33.4271 55.6849 33.3125 55.2161 33.3125 54.6484C33.3125 53.7943 33.651 53.138 34.3281 52.6797C35.0052 52.2214 36.0365 51.9714 37.4219 51.9297L38.8984 51.8672V51.3438C38.8984 50.6042 38.7396 50.0859 38.4219 49.7891C38.1042 49.4922 37.6562 49.3438 37.0781 49.3438C36.6302 49.3438 36.2031 49.4089 35.7969 49.5391C35.3906 49.6693 35.0052 49.8229 34.6406 50L34.2422 49.0156C34.6276 48.8177 35.0703 48.6484 35.5703 48.5078C36.0703 48.3672 36.5964 48.2969 37.1484 48.2969ZM38.8828 52.7812L37.5781 52.8359C36.5104 52.8776 35.7578 53.0521 35.3203 53.3594C34.8828 53.6667 34.6641 54.1016 34.6641 54.6641C34.6641 55.1536 34.8125 55.5156 35.1094 55.75C35.4062 55.9844 35.7995 56.1016 36.2891 56.1016C37.0495 56.1016 37.6719 55.8906 38.1562 55.4688C38.6406 55.0469 38.8828 54.4141 38.8828 53.5703V52.7812ZM44.1406 57H42.8359V44.8438H44.1406V57ZM56.1172 46.5859C55.487 46.5859 54.9193 46.6953 54.4141 46.9141C53.9141 47.1276 53.487 47.4401 53.1328 47.8516C52.7839 48.2578 52.5156 48.75 52.3281 49.3281C52.1406 49.9062 52.0469 50.5573 52.0469 51.2812C52.0469 52.2396 52.1953 53.0729 52.4922 53.7812C52.7943 54.4844 53.2422 55.0286 53.8359 55.4141C54.4349 55.7995 55.1823 55.9922 56.0781 55.9922C56.5885 55.9922 57.0677 55.9505 57.5156 55.8672C57.9688 55.7786 58.4089 55.6693 58.8359 55.5391V56.6953C58.4193 56.8516 57.9818 56.9661 57.5234 57.0391C57.0651 57.1172 56.5208 57.1562 55.8906 57.1562C54.7292 57.1562 53.7578 56.9167 52.9766 56.4375C52.2005 55.9531 51.6172 55.2708 51.2266 54.3906C50.8411 53.5104 50.6484 52.4714 50.6484 51.2734C50.6484 50.4089 50.7682 49.6198 51.0078 48.9062C51.2526 48.1875 51.6068 47.5677 52.0703 47.0469C52.5391 46.526 53.112 46.125 53.7891 45.8438C54.4714 45.5573 55.2526 45.4141 56.1328 45.4141C56.7109 45.4141 57.2682 45.4714 57.8047 45.5859C58.3411 45.7005 58.8255 45.8646 59.2578 46.0781L58.7266 47.2031C58.362 47.0365 57.9609 46.8932 57.5234 46.7734C57.0911 46.6484 56.6224 46.5859 56.1172 46.5859ZM68.5 52.7031C68.5 53.4062 68.4089 54.0339 68.2266 54.5859C68.0443 55.138 67.7812 55.6042 67.4375 55.9844C67.0938 56.3646 66.6771 56.6562 66.1875 56.8594C65.7031 57.0573 65.1536 57.1562 64.5391 57.1562C63.9661 57.1562 63.4401 57.0573 62.9609 56.8594C62.487 56.6562 62.0755 56.3646 61.7266 55.9844C61.3828 55.6042 61.1146 55.138 60.9219 54.5859C60.7344 54.0339 60.6406 53.4062 60.6406 52.7031C60.6406 51.7656 60.7995 50.9688 61.1172 50.3125C61.4349 49.651 61.888 49.1484 62.4766 48.8047C63.0703 48.4557 63.776 48.2812 64.5938 48.2812C65.375 48.2812 66.0573 48.4557 66.6406 48.8047C67.2292 49.1536 67.6849 49.6589 68.0078 50.3203C68.3359 50.9766 68.5 51.7708 68.5 52.7031ZM61.9844 52.7031C61.9844 53.3906 62.0755 53.987 62.2578 54.4922C62.4401 54.9974 62.7214 55.388 63.1016 55.6641C63.4818 55.9401 63.9714 56.0781 64.5703 56.0781C65.1641 56.0781 65.651 55.9401 66.0312 55.6641C66.4167 55.388 66.7005 54.9974 66.8828 54.4922C67.0651 53.987 67.1562 53.3906 67.1562 52.7031C67.1562 52.0208 67.0651 51.4323 66.8828 50.9375C66.7005 50.4375 66.4193 50.0521 66.0391 49.7812C65.6589 49.5104 65.1667 49.375 64.5625 49.375C63.6719 49.375 63.0182 49.6693 62.6016 50.2578C62.1901 50.8464 61.9844 51.6615 61.9844 52.7031ZM73.7891 57.1562C72.7057 57.1562 71.8464 56.7865 71.2109 56.0469C70.5807 55.3073 70.2656 54.2083 70.2656 52.75C70.2656 51.276 70.5885 50.1641 71.2344 49.4141C71.8802 48.6589 72.7396 48.2812 73.8125 48.2812C74.2656 48.2812 74.6615 48.3411 75 48.4609C75.3385 48.5807 75.6302 48.7422 75.875 48.9453C76.1198 49.1432 76.3255 49.3698 76.4922 49.625H76.5859C76.5651 49.4635 76.5443 49.2422 76.5234 48.9609C76.5026 48.6797 76.4922 48.4505 76.4922 48.2734V44.8438H77.7891V57H76.7422L76.5469 55.7812H76.4922C76.3307 56.0365 76.125 56.2682 75.875 56.4766C75.6302 56.6849 75.3359 56.8516 74.9922 56.9766C74.6536 57.0964 74.2526 57.1562 73.7891 57.1562ZM73.9922 56.0781C74.9089 56.0781 75.5573 55.8177 75.9375 55.2969C76.3177 54.776 76.5078 54.0026 76.5078 52.9766V52.7422C76.5078 51.6536 76.3255 50.8177 75.9609 50.2344C75.6016 49.651 74.9453 49.3594 73.9922 49.3594C73.1953 49.3594 72.599 49.6667 72.2031 50.2812C71.8073 50.8906 71.6094 51.724 71.6094 52.7812C71.6094 53.8333 71.8047 54.6458 72.1953 55.2188C72.5911 55.7917 73.1901 56.0781 73.9922 56.0781ZM83.8359 48.2812C84.5651 48.2812 85.1901 48.4427 85.7109 48.7656C86.2318 49.0885 86.6302 49.5417 86.9062 50.125C87.1823 50.7031 87.3203 51.3802 87.3203 52.1562V52.9609H81.4062C81.4219 53.9661 81.6719 54.7318 82.1562 55.2578C82.6406 55.7839 83.3229 56.0469 84.2031 56.0469C84.7448 56.0469 85.224 55.9974 85.6406 55.8984C86.0573 55.7995 86.4896 55.6536 86.9375 55.4609V56.6016C86.5052 56.7943 86.0755 56.9349 85.6484 57.0234C85.2266 57.112 84.7266 57.1562 84.1484 57.1562C83.3255 57.1562 82.6068 56.9896 81.9922 56.6562C81.3828 56.3177 80.9089 55.8229 80.5703 55.1719C80.2318 54.5208 80.0625 53.724 80.0625 52.7812C80.0625 51.8594 80.2161 51.0625 80.5234 50.3906C80.8359 49.7135 81.2734 49.1927 81.8359 48.8281C82.4036 48.4635 83.0703 48.2812 83.8359 48.2812ZM83.8203 49.3438C83.1276 49.3438 82.5755 49.5703 82.1641 50.0234C81.7526 50.4766 81.5078 51.1094 81.4297 51.9219H85.9609C85.9557 51.4115 85.875 50.9635 85.7188 50.5781C85.5677 50.1875 85.3359 49.8854 85.0234 49.6719C84.7109 49.4531 84.3099 49.3438 83.8203 49.3438ZM89.3281 56.1875C89.3281 55.8229 89.4167 55.5651 89.5938 55.4141C89.7708 55.2578 89.987 55.1797 90.2422 55.1797C90.5078 55.1797 90.7318 55.2578 90.9141 55.4141C91.0964 55.5651 91.1875 55.8229 91.1875 56.1875C91.1875 56.5469 91.0964 56.8099 90.9141 56.9766C90.7318 57.138 90.5078 57.2188 90.2422 57.2188C89.987 57.2188 89.7708 57.138 89.5938 56.9766C89.4167 56.8099 89.3281 56.5469 89.3281 56.1875ZM89.3281 49.2578C89.3281 48.8828 89.4167 48.6198 89.5938 48.4688C89.7708 48.3125 89.987 48.2344 90.2422 48.2344C90.5078 48.2344 90.7318 48.3125 90.9141 48.4688C91.0964 48.6198 91.1875 48.8828 91.1875 49.2578C91.1875 49.612 91.0964 49.8698 90.9141 50.0312C90.7318 50.1927 90.5078 50.2734 90.2422 50.2734C89.987 50.2734 89.7708 50.1927 89.5938 50.0312C89.4167 49.8698 89.3281 49.612 89.3281 49.2578ZM97.9766 57H96.7109V48.9062C96.7109 48.599 96.7109 48.3359 96.7109 48.1172C96.7161 47.8932 96.7214 47.6901 96.7266 47.5078C96.737 47.3203 96.75 47.1302 96.7656 46.9375C96.6042 47.1042 96.4531 47.2474 96.3125 47.3672C96.1719 47.4818 95.9974 47.625 95.7891 47.7969L94.4844 48.8438L93.8047 47.9609L96.8984 45.5781H97.9766V57ZM109.789 57H102.305V55.9141L105.359 52.8125C105.927 52.2396 106.404 51.7292 106.789 51.2812C107.18 50.8333 107.477 50.3932 107.68 49.9609C107.883 49.5234 107.984 49.0443 107.984 48.5234C107.984 47.8776 107.792 47.3854 107.406 47.0469C107.026 46.7031 106.523 46.5312 105.898 46.5312C105.352 46.5312 104.867 46.625 104.445 46.8125C104.023 47 103.591 47.2656 103.148 47.6094L102.453 46.7344C102.755 46.4792 103.083 46.2526 103.438 46.0547C103.797 45.8568 104.18 45.7005 104.586 45.5859C104.997 45.4714 105.435 45.4141 105.898 45.4141C106.602 45.4141 107.208 45.5365 107.719 45.7812C108.229 46.026 108.622 46.375 108.898 46.8281C109.18 47.2812 109.32 47.8203 109.32 48.4453C109.32 49.0495 109.201 49.612 108.961 50.1328C108.721 50.6484 108.385 51.1615 107.953 51.6719C107.521 52.1771 107.016 52.7135 106.438 53.2812L103.953 55.7578V55.8125H109.789V57ZM118.523 48.2422C118.523 48.7526 118.424 49.1953 118.227 49.5703C118.029 49.9453 117.753 50.2526 117.398 50.4922C117.044 50.7266 116.628 50.8906 116.148 50.9844V51.0469C117.055 51.1615 117.734 51.4531 118.188 51.9219C118.646 52.3906 118.875 53.0052 118.875 53.7656C118.875 54.4271 118.719 55.013 118.406 55.5234C118.099 56.0339 117.625 56.4349 116.984 56.7266C116.349 57.013 115.534 57.1562 114.539 57.1562C113.935 57.1562 113.375 57.1068 112.859 57.0078C112.349 56.9141 111.859 56.7552 111.391 56.5312V55.3125C111.865 55.5469 112.38 55.7318 112.938 55.8672C113.495 55.9974 114.034 56.0625 114.555 56.0625C115.596 56.0625 116.349 55.8568 116.812 55.4453C117.276 55.0286 117.508 54.4609 117.508 53.7422C117.508 53.2474 117.378 52.849 117.117 52.5469C116.862 52.2396 116.492 52.0156 116.008 51.875C115.529 51.7292 114.951 51.6562 114.273 51.6562H113.133V50.5469H114.281C114.901 50.5469 115.427 50.4557 115.859 50.2734C116.292 50.0911 116.62 49.8359 116.844 49.5078C117.073 49.1745 117.188 48.7812 117.188 48.3281C117.188 47.75 116.995 47.3047 116.609 46.9922C116.224 46.6745 115.701 46.5156 115.039 46.5156C114.633 46.5156 114.263 46.5573 113.93 46.6406C113.596 46.724 113.284 46.8385 112.992 46.9844C112.701 47.1302 112.409 47.2995 112.117 47.4922L111.461 46.6016C111.878 46.2786 112.385 46 112.984 45.7656C113.583 45.5312 114.263 45.4141 115.023 45.4141C116.19 45.4141 117.065 45.6797 117.648 46.2109C118.232 46.7422 118.523 47.4193 118.523 48.2422ZM128.672 54.3516H126.961V57H125.695V54.3516H120.172V53.2578L125.609 45.5156H126.961V53.1797H128.672V54.3516ZM125.695 53.1797V49.4453C125.695 49.1589 125.698 48.901 125.703 48.6719C125.708 48.4375 125.716 48.2214 125.727 48.0234C125.737 47.8203 125.745 47.6276 125.75 47.4453C125.76 47.263 125.768 47.0833 125.773 46.9062H125.711C125.612 47.1146 125.497 47.3359 125.367 47.5703C125.242 47.7995 125.115 48.0052 124.984 48.1875L121.461 53.1797H125.695ZM133.383 50.0156C134.159 50.0156 134.833 50.1484 135.406 50.4141C135.979 50.6745 136.422 51.0547 136.734 51.5547C137.052 52.0547 137.211 52.6615 137.211 53.375C137.211 54.1562 137.042 54.8307 136.703 55.3984C136.365 55.9609 135.878 56.3958 135.242 56.7031C134.607 57.0052 133.846 57.1562 132.961 57.1562C132.367 57.1562 131.815 57.1042 131.305 57C130.794 56.8958 130.365 56.7396 130.016 56.5312V55.2969C130.396 55.526 130.857 55.7083 131.398 55.8438C131.94 55.9792 132.466 56.0469 132.977 56.0469C133.555 56.0469 134.06 55.9557 134.492 55.7734C134.93 55.5859 135.268 55.3047 135.508 54.9297C135.753 54.5495 135.875 54.0729 135.875 53.5C135.875 52.7396 135.641 52.1536 135.172 51.7422C134.708 51.3255 133.974 51.1172 132.969 51.1172C132.646 51.1172 132.292 51.1432 131.906 51.1953C131.521 51.2474 131.203 51.3047 130.953 51.3672L130.297 50.9375L130.734 45.5781H136.414V46.7656H131.844L131.555 50.2109C131.753 50.1693 132.008 50.1276 132.32 50.0859C132.633 50.0391 132.987 50.0156 133.383 50.0156Z" fill="#181818"/>
</svg>
